<svg id="Layer_1" data-name="Layer 1" xmlns="http://www.w3.org/2000/svg" viewBox="0 0 309.43 454.25"><defs><style>.cls-1{fill:#80d56c;}.cls-2{fill:#80d66b;}.cls-3{fill:#80d66c;}.cls-4{fill:#7fd66b;}.cls-5{fill:#80d76c;}.cls-6{fill:#81d76c;}.cls-7{fill:#8ecf7d;}.cls-8{fill:#8fcc80;}</style></defs><path class="cls-1" d="M555.48,118c42.22-7.15,83.08,21.85,90,63.52,7.19,43.22-19.82,82.49-62.71,91.19-41.08,8.33-83.89-20.92-91.11-62.24-7.06-40.43,14.71-77,53.68-90.11A102,102,0,0,1,555.48,118m79.21,72.72c-1.81-29.92-24.72-55.49-54.45-60.79a66.37,66.37,0,0,0-72.61,39c-11.81,26.72-3.24,57.36,13.49,72.08A53.07,53.07,0,0,1,548.59,214c-9.27-17.57-8.24-29.93,3.09-39.22a26.34,26.34,0,0,1,34,.23c11,9.3,12,22.07,2.71,38.93,12.63,5.47,21.74,14.74,27.9,27.54,13.25-14.64,19.37-31,18.42-50.82m-76.12,32.6c-12.27,3.5-21,11-26.36,22.63-1.44,3.13-.88,4.74,2,6.38q34.21,19.28,68.41.12c3.17-1.77,3.53-3.51,2.05-6.76-8-17.59-25.61-26.45-46.12-22.37m20.37-38.22c-4.68-4.35-10-5.64-16-3.22A13.88,13.88,0,0,0,553.84,195a14.05,14.05,0,0,0,7.89,13.41,14.64,14.64,0,0,0,17.7-3.24C584.48,199.44,584.49,192.8,578.94,185.06Z" transform="translate(-413.79 -40.47)"/><path class="cls-2" d="M468.54,415.66c-10.22,15.87-10.58,32.42-3.89,49,5.65,14,19.46,20.38,36.55,17.56,9.39-1.55,8.31.93,8.36-9.51.06-9.3,0-18.61,0-28.25h13.52a23.74,23.74,0,0,1,.39,3c0,13,.11,26-.09,39,0,1.49-1.47,4.13-2.51,4.26-11.34,1.46-22.83,4.08-34.1,3.38-22.21-1.37-37.23-16.74-40.13-38.91-1.58-12-1.25-23.87,3.51-35.36,9-21.59,29.15-30.34,50.19-27.76,7.46.91,14.75,3.29,22.86,5.17-1.88,5-3.24,8.65-4.59,12.28C500.65,402.72,483.46,398.82,468.54,415.66Z" transform="translate(-413.79 -40.47)"/><path class="cls-3" d="M555.44,438.82c.55,6.75.38,13.19,1.82,19.26,4.25,17.92,18.4,26.93,37.34,24.07,6.18-.93,12.22-2.79,18.72-4.32,1,3.2,2.11,6.64,3.43,10.8-3.35,1.19-6.35,2.5-9.48,3.34-10.92,2.91-22,3.83-33.1,1.18-12.71-3-22.45-10.39-27.75-22.4-8.17-18.48-8.43-37.21.8-55.46,9.42-18.6,29.13-25.67,47.49-23.22,5.41.73,10.7,2.36,16,3.79,3.92,1.07,6.16,3.12,3.64,7.57a39.92,39.92,0,0,0-2.26,6C575.23,393.63,556.86,414.25,555.44,438.82Z" transform="translate(-413.79 -40.47)"/><path class="cls-4" d="M651.39,446.74l-5.25.81c0,13.72,0,27.44-.54,41.63-4.66.46-8.78.46-12.91.47q-.08-47-.13-94a7.32,7.32,0,0,1,.49-1.68h58.08v11.49h-44.5v29.79h39.63a61.6,61.6,0,0,1-.61,10.78c-2.17-.41-3.71-1.29-5.27-1.32-8.24-.15-16.49-.18-24.73,0C654.22,444.77,652.81,446,651.39,446.74Z" transform="translate(-413.79 -40.47)"/><path class="cls-3" d="M691.16,210.37c-1.06-1.09-2.24-1.8-2.6-2.8-2.36-6.54-7.47-6.87-13.23-6.33-3.11.29-6.28,0-9.82,0V189.43c5.26,0,10.53.18,15.76-.11,1.64-.1,3.89-1.07,4.69-2.37,6.85-11,18.08-14.45,28.06-8.25a19.68,19.68,0,0,1,6.16,27.15C713.85,215.79,702,217.75,691.16,210.37Z" transform="translate(-413.79 -40.47)"/><path class="cls-5" d="M436.86,214.7c-12.43.8-20.63-5.07-22.71-15.86-1.88-9.75,3.68-19,13.42-22.2a18.94,18.94,0,0,1,22.57,9.15c1.65,3.09,3.54,3.8,6.62,3.69,4.78-.18,9.58,0,14.73,0v11.94c-5.14,0-10.24.1-15.33,0-2.74-.07-4.47.57-5.83,3.37C447.72,210.05,443.1,213.25,436.86,214.7Z" transform="translate(-413.79 -40.47)"/><path class="cls-5" d="M681.57,299.86c-6,9.87-16,13.43-25.34,9.34s-13.51-14-10.68-24.64a5.64,5.64,0,0,0-1.21-4.53c-3.67-3.84-7.67-7.37-12.22-11.65l10.44-8.17c2.74,3,6.09,7.13,10,10.72a7.65,7.65,0,0,0,6,1.68c8-1.75,15-.42,20.41,5.92S685.13,291.92,681.57,299.86Z" transform="translate(-413.79 -40.47)"/><path class="cls-6" d="M490.15,300.45c-5.51,8.35-12.61,11.64-20.91,10-8-1.63-14.35-7.94-15.64-15.6a19.42,19.42,0,0,1,9-20.16,18.2,18.2,0,0,1,15.37-2c3,.95,5,.41,7-1.89,3.3-3.75,6.85-7.26,10.16-10.73l9.07,9.64c-3.45,3-7.67,6.53-11.5,10.4-1,1.05-1,3.29-1.2,5C491,290.08,490.71,295.1,490.15,300.45Z" transform="translate(-413.79 -40.47)"/><path class="cls-6" d="M556.73,44.16c11-6.59,22.64-4.15,28.56,5.7s2.37,21-8.33,27.71a6,6,0,0,0-2.36,4.18c-.28,5.3-.11,10.62-.11,16.34h-12c0-5.61.17-10.93-.1-16.22a6,6,0,0,0-2.29-4.22C546.59,69.25,545,55.21,556.73,44.16Z" transform="translate(-413.79 -40.47)"/><path class="cls-3" d="M583.77,343.2c-6.25,6.78-13.49,9-21.93,6-7.86-2.79-12.14-8.75-12.76-16.88-.65-8.41,3.27-14.6,10.52-19a7.17,7.17,0,0,0,2.78-5c.36-5.11.13-10.26.13-15.77h12c0,5.3-.23,10.56.13,15.78a7.34,7.34,0,0,0,2.8,5C588.78,320.62,591.31,331.55,583.77,343.2Z" transform="translate(-413.79 -40.47)"/><path class="cls-6" d="M678.81,86.72c6,8.2,6.34,17.13,1.13,24.34-5.06,7-13.38,9.52-22.16,7.07a5.68,5.68,0,0,0-4.63,1.06c-4,3.72-7.71,7.79-11.33,11.54l-9.65-9c4.06-3.6,8.25-7.08,12.12-10.89a5.55,5.55,0,0,0,1.31-4.48c-2.53-9.8.33-18.58,7.91-23.23C661.69,78.08,671.06,79.33,678.81,86.72Z" transform="translate(-413.79 -40.47)"/><path class="cls-6" d="M499.87,127.24l-4.51,4.3c-1.72-2.08-3.25-4.06-4.93-5.91-4.38-4.8-8.06-9.17-16.45-6.91s-16.17-4.09-19.41-12.33a19.42,19.42,0,0,1,6.07-22,20,20,0,0,1,23.34-1,18.84,18.84,0,0,1,7.55,21.51c-1,3.17-.27,4.83,1.9,6.78,3.7,3.32,7.23,6.85,11.17,10.62Z" transform="translate(-413.79 -40.47)"/><path class="cls-7" d="M651.87,446.84c.94-.8,2.35-2.07,3.78-2.1,8.24-.18,16.49-.15,24.73,0,1.56,0,3.1.91,5,1.61C674.57,446.69,663.46,446.82,651.87,446.84Z" transform="translate(-413.79 -40.47)"/><path class="cls-8" d="M632.62,490.08a125,125,0,0,1,12.86-.45c.49.49.79,1.12.59,1.45C644.51,493.68,634.41,493.22,632.62,490.08Z" transform="translate(-413.79 -40.47)"/></svg>